<svg width="22" height="26" viewBox="0 0 22 26" fill="none" xmlns="http://www.w3.org/2000/svg">
<path d="M1.37087 25.2248H20.0747C20.9786 25.2248 20.9786 23.9038 20.0538 23.9038H1.4109C0.536449 23.9038 0.536519 25.2248 1.37087 25.2248Z" fill="#F8E44F"/>
<path d="M20.0747 0.75H1.37087C0.536519 0.75 0.606049 2.14062 1.44417 2.14062H20.008C20.8395 2.14062 20.8395 0.75 20.0747 0.75Z" fill="#F8E44F"/>
<path d="M1.4109 23.9038H20.0538C19.91 20.2378 19.0317 16.1858 10.7575 12.3616C3.11532 15.6208 1.6461 20.3132 1.4109 23.9038Z" fill="#F8E44F"/>
<path d="M20.008 2.14062H1.44417C1.90126 6.26473 4.5693 9.50154 10.7575 12.3616C16.953 9.71948 19.5736 6.52106 20.008 2.14062Z" fill="#F8E44F"/>
<path d="M1.4109 23.9038C0.536449 23.9038 0.536519 25.2248 1.37087 25.2248H20.0747C20.9786 25.2248 20.9786 23.9038 20.0538 23.9038M1.4109 23.9038H20.0538M1.4109 23.9038C1.6461 20.3132 3.11532 15.6208 10.7575 12.3616M20.0538 23.9038C19.91 20.2378 19.0317 16.1858 10.7575 12.3616M20.008 2.14062C20.8395 2.14062 20.8395 0.75 20.0747 0.75H1.37087C0.536519 0.75 0.606049 2.14062 1.44417 2.14062M20.008 2.14062H1.44417M20.008 2.14062C19.5736 6.52106 16.953 9.71948 10.7575 12.3616M1.44417 2.14062C1.90126 6.26473 4.5693 9.50153 10.7575 12.3616" stroke="black" stroke-width="1.5"/>
</svg>
